<?xml version="1.0" encoding="UTF-8"?><svg id="Layer_2" xmlns="http://www.w3.org/2000/svg" viewBox="0 0 174.78 174.78"><defs><style>.cls-1{fill:#0056a1;}.cls-2{fill:#f26a36;}.cls-3{fill:#fff;}</style></defs><g id="Layer_1-2"><g><rect class="cls-3" width="174.78" height="174.78"/><g><path class="cls-2" d="M36.55,64.77l-.04-.07c3.93-5.11,6.59-12.29,6.59-12.29h-3.65s-3.24,6.63-5.43,9.21l-6.54-8.39c3.32-2.24,6.78-4.39,6.78-8.15,0-4.49-3.02-7.03-7.51-7.03s-7.9,2.98-7.9,7.56c0,2.68,1.42,4.73,3.27,7.03-3.27,2.2-6.49,4.83-6.49,9.37,0,5.07,3.32,8.54,9.17,8.54,4.25,0,7.22-1.8,8.93-3.22l.11,.13c2.81,2.65,5.31,2.39,7.33,2.46h117.53l.42-3.17H43.69c-2.5-.02-5.18,.41-7.14-1.98m-9.85-23.29c2.34,0,3.66,1.56,3.66,3.81s-2.44,3.66-5.03,5.32c-1.42-1.8-2.44-3.27-2.44-5.03,0-2.39,1.37-4.1,3.81-4.1m-1.51,25.47c-2.93,0-5.37-1.9-5.37-5.17,0-3.07,2.34-4.93,4.44-6.44l7.07,9.03c-1.46,1.27-3.56,2.59-6.15,2.59"/><path class="cls-1" d="M15.67,100.95v-20.01h7.48c.85,0,1.69,.1,2.5,.29,.81,.19,1.54,.51,2.17,.95,.63,.44,1.15,1.03,1.53,1.76,.39,.73,.58,1.63,.58,2.67s-.2,1.88-.61,2.62c-.4,.74-.93,1.38-1.57,1.88-.64,.51-1.38,.89-2.17,1.13-.8,.24-1.61,.37-2.41,.37h-3.64v8.32h-3.86Zm3.87-11.34l3.05-.03c1.05,0,1.88-.28,2.48-.84,.59-.56,.89-1.26,.89-2.1s-.29-1.55-.85-2.01c-.57-.47-1.42-.7-2.52-.7h-3.05v5.68Z"/><path class="cls-1" d="M44.23,100.95l-4.07-6.01c-.5-.78-.98-1.41-1.44-1.87-.43-.44-.88-.67-1.32-.67h-.82v8.55h-3.86v-20.01h7.66c.87,0,1.72,.12,2.53,.35,.81,.23,1.53,.58,2.14,1.05,.61,.47,1.11,1.06,1.48,1.76,.37,.7,.56,1.53,.56,2.46s-.19,1.78-.56,2.44c-.37,.66-.83,1.2-1.35,1.63-.53,.42-1.09,.74-1.68,.95-.49,.18-.93,.3-1.31,.37,.09,.07,.18,.15,.28,.25,.16,.15,.31,.31,.46,.49l.4,.48c.13,.16,.22,.28,.28,.38l5.19,7.41h-4.56Zm-7.64-11.45l3.08-.03c.69,0,1.26-.08,1.71-.23,.45-.15,.8-.37,1.06-.63,.25-.26,.43-.57,.53-.92,.1-.35,.15-.74,.15-1.14,0-.72-.29-1.35-.85-1.85-.57-.51-1.44-.77-2.6-.77h-3.08v5.57Z"/><rect class="cls-1" x="51.7" y="80.94" width="3.86" height="20.01"/><polygon class="cls-1" points="59.21 100.95 59.21 98.31 69.85 84.01 59.81 84.01 59.8 80.94 74.87 80.95 74.88 83.53 64.23 97.83 75.13 97.83 75.13 100.95 59.21 100.95"/><polygon class="cls-1" points="78.8 100.95 78.81 80.94 92.27 80.95 92.27 84.01 82.67 84.01 82.67 89.04 91.5 89.05 91.51 91.97 82.67 91.97 82.67 97.82 92.64 97.83 92.64 100.95 78.8 100.95"/><polygon class="cls-1" points="106.22 100.94 106.22 80.94 119.82 80.94 119.82 84.01 110.07 84.01 110.07 89.23 119.11 89.23 119.12 92.17 110.07 92.16 110.08 100.95 106.22 100.94"/><path class="cls-1" d="M130.8,101.34c-1.5,0-2.82-.27-3.92-.8-1.1-.53-2.03-1.27-2.75-2.2-.72-.93-1.26-2.05-1.62-3.34-.35-1.27-.52-2.69-.52-4.2,0-1.74,.25-3.27,.74-4.55,.49-1.28,1.16-2.36,1.99-3.2,.83-.84,1.77-1.48,2.82-1.89,1.04-.41,2.14-.61,3.26-.61,1.19,0,2.34,.19,3.4,.56,1.07,.37,2.01,.97,2.81,1.79,.8,.82,1.44,1.89,1.9,3.19,.46,1.3,.7,2.89,.7,4.72s-.22,3.31-.66,4.63c-.44,1.32-1.06,2.43-1.85,3.29-.79,.86-1.73,1.52-2.81,1.96-1.07,.44-2.25,.66-3.5,.66m0-17.96c-.9,0-1.67,.22-2.27,.65-.61,.43-1.11,1-1.48,1.7-.37,.7-.64,1.5-.8,2.38-.16,.88-.24,1.79-.24,2.69,0,.99,.07,1.96,.2,2.89,.13,.92,.38,1.75,.73,2.45,.35,.7,.84,1.28,1.46,1.71,.61,.43,1.42,.65,2.4,.65,.92,0,1.7-.2,2.32-.6,.61-.39,1.11-.94,1.47-1.62,.36-.68,.62-1.5,.77-2.44,.15-.92,.22-1.95,.22-3.04s-.07-2.02-.22-2.92c-.15-.91-.41-1.7-.77-2.37-.36-.66-.85-1.19-1.46-1.57-.61-.38-1.39-.57-2.33-.57"/><path class="cls-1" d="M154.31,100.95l-4.07-6.01c-.51-.78-.99-1.41-1.44-1.87-.43-.44-.88-.67-1.32-.67h-.83v8.55h-3.86v-20.01h7.66c.87,0,1.72,.12,2.53,.35,.81,.23,1.53,.58,2.14,1.05,.61,.47,1.11,1.06,1.48,1.76,.37,.7,.56,1.53,.56,2.46s-.19,1.78-.56,2.44c-.37,.66-.83,1.21-1.35,1.63-.53,.42-1.09,.74-1.68,.95-.49,.18-.93,.3-1.31,.37,.09,.07,.18,.15,.29,.25,.16,.15,.32,.31,.46,.49l.4,.48c.12,.16,.22,.28,.28,.38l5.2,7.41h-4.57Zm-7.64-11.45l3.08-.03c.69,0,1.26-.08,1.71-.23,.44-.15,.8-.37,1.05-.63,.25-.26,.43-.57,.53-.92,.1-.36,.15-.74,.15-1.14,0-.72-.28-1.35-.85-1.85-.57-.51-1.44-.77-2.6-.77h-3.08v5.57Z"/><path class="cls-1" d="M15.66,174.29v-24.19h9.74c1.06,0,2.08,.14,3.04,.39,.96,.25,1.82,.65,2.55,1.2,.73,.54,1.31,1.23,1.74,2.05,.43,.83,.65,1.8,.65,2.91,0,.76-.13,1.45-.4,2.03-.27,.58-.6,1.08-.98,1.48-.38,.41-.8,.74-1.22,.98-.3,.17-.58,.3-.84,.4,.28,.07,.6,.19,.97,.35,.52,.23,1.04,.57,1.53,1.03,.5,.45,.93,1.02,1.27,1.69,.35,.67,.52,1.48,.52,2.41,0,1.36-.27,2.52-.82,3.46-.54,.94-1.25,1.7-2.1,2.26-.85,.57-1.8,.97-2.83,1.21-1.02,.24-2.03,.36-3.02,.36H15.66Zm4.6-3.63l4.93,.02c.56,0,1.11-.07,1.62-.2,.51-.13,.97-.35,1.36-.64,.39-.29,.7-.67,.93-1.14,.23-.46,.35-1.04,.35-1.71,0-1.13-.4-2.02-1.2-2.64-.81-.62-1.84-.94-3.07-.94h-4.92l-.02,7.24Zm0-10.74h4.32c1.14-.01,2.13-.26,2.92-.75,.78-.48,1.17-1.3,1.17-2.42,0-.99-.35-1.76-1.04-2.28-.7-.53-1.77-.8-3.19-.8h-4.17l-.02,6.25Z"/><polygon class="cls-1" points="38.17 174.29 38.17 150.1 42.81 150.1 42.81 174.3 38.17 174.29"/><path class="cls-1" d="M57.16,174.78c-1.81,0-3.41-.33-4.74-.97-1.33-.64-2.45-1.54-3.32-2.67-.87-1.12-1.53-2.48-1.95-4.03-.42-1.54-.64-3.25-.64-5.08,0-2.11,.3-3.96,.9-5.51,.6-1.55,1.4-2.85,2.4-3.87,1-1.02,2.15-1.79,3.41-2.28,1.26-.49,2.59-.74,3.94-.74,1.44,0,2.83,.22,4.11,.67,1.28,.45,2.43,1.18,3.39,2.17,.96,.99,1.74,2.29,2.3,3.86,.56,1.57,.84,3.49,.84,5.71s-.27,4.01-.79,5.6c-.53,1.59-1.28,2.93-2.23,3.98-.96,1.04-2.1,1.84-3.39,2.37-1.3,.53-2.72,.79-4.24,.79m0-21.75c-1.1,0-2.03,.27-2.76,.79-.74,.53-1.35,1.22-1.79,2.06-.45,.85-.78,1.82-.97,2.89-.19,1.08-.29,2.17-.29,3.26,0,1.2,.08,2.38,.24,3.5,.16,1.11,.46,2.11,.88,2.97,.43,.86,1.02,1.55,1.77,2.08,.75,.52,1.73,.79,2.92,.79,1.12,0,2.07-.24,2.82-.72,.75-.48,1.35-1.15,1.79-1.97,.44-.83,.75-1.83,.93-2.96,.18-1.14,.27-2.38,.27-3.69,0-1.24-.09-2.43-.27-3.54-.18-1.1-.49-2.06-.93-2.87-.44-.81-1.03-1.45-1.77-1.91-.74-.46-1.69-.69-2.83-.69"/><polygon class="cls-1" points="71.79 174.29 71.79 150.1 76.42 150.1 76.42 170.55 88.29 170.55 88.3 174.3 71.79 174.29"/><path class="cls-1" d="M100.38,174.78c-1.82,0-3.41-.33-4.74-.97-1.33-.64-2.45-1.54-3.33-2.67-.87-1.13-1.53-2.48-1.95-4.03s-.64-3.26-.64-5.08c0-2.1,.3-3.95,.9-5.51,.6-1.55,1.4-2.85,2.4-3.87,1-1.03,2.15-1.79,3.41-2.28,1.26-.49,2.59-.74,3.94-.74,1.44,0,2.83,.22,4.11,.67,1.29,.45,2.43,1.18,3.4,2.17,.97,.99,1.74,2.29,2.3,3.86,.56,1.57,.85,3.49,.85,5.71s-.27,4.01-.79,5.6c-.53,1.6-1.28,2.93-2.23,3.98-.96,1.04-2.1,1.84-3.4,2.37-1.3,.53-2.72,.79-4.23,.79m0-21.75c-1.1,0-2.03,.27-2.76,.79-.74,.53-1.34,1.22-1.79,2.06-.45,.85-.78,1.82-.97,2.89-.19,1.07-.29,2.17-.29,3.26,0,1.21,.08,2.38,.24,3.5,.16,1.11,.45,2.11,.88,2.97,.43,.86,1.02,1.55,1.77,2.08,.75,.52,1.73,.79,2.92,.79,1.12,0,2.07-.24,2.82-.72,.75-.48,1.35-1.15,1.79-1.97,.44-.83,.75-1.83,.93-2.96,.18-1.13,.27-2.37,.27-3.69s-.09-2.44-.27-3.54c-.18-1.09-.49-2.06-.93-2.87-.43-.81-1.03-1.44-1.77-1.91-.74-.46-1.69-.69-2.83-.69"/><path class="cls-1" d="M126.18,174.78c-1.84,0-3.49-.31-4.93-.92-1.43-.61-2.67-1.47-3.68-2.58-1.01-1.1-1.79-2.46-2.32-4.03-.53-1.57-.79-3.33-.79-5.26,0-2.08,.35-3.92,1.03-5.46,.68-1.54,1.59-2.83,2.7-3.85,1.11-1.02,2.37-1.79,3.76-2.3,1.39-.5,2.8-.76,4.2-.76,1.99,0,3.66,.27,4.96,.79,1.3,.53,2.36,1.17,3.16,1.91l-1.8,3.47c-.46-.34-.82-.7-1.22-1.04-.39-.34-.84-.63-1.34-.88-.5-.25-1.06-.45-1.68-.61-.62-.15-1.32-.24-2.09-.24-.99,0-1.91,.21-2.76,.64-.84,.43-1.57,1.04-2.18,1.81-.61,.78-1.09,1.73-1.44,2.82-.35,1.1-.53,2.34-.53,3.7s.18,2.7,.53,3.83c.35,1.14,.85,2.13,1.48,2.96,.63,.82,1.39,1.46,2.26,1.91,.87,.45,1.83,.68,2.87,.68,1.22,0,2.2-.13,2.9-.37,.69-.25,1.19-.5,1.48-.77l-.03-5.95h-5.37v-3.53h9.83v11.67c-1.06,.72-2.31,1.27-3.74,1.7-1.43,.43-3.2,.65-5.26,.65"/><polygon class="cls-1" points="145.22 174.29 145.23 164.54 135.83 150.1 141.41 150.11 147.83 160.76 153.84 150.1 159.15 150.1 149.86 164.59 149.85 174.29 145.22 174.29"/><polygon class="cls-1" points="34.3 140.85 21.34 117.69 21.34 140.85 15.66 140.85 15.66 109.79 23.21 109.79 36.16 132.95 36.16 109.79 41.84 109.79 41.84 140.85 34.3 140.85"/><polygon class="cls-1" points="48.1 140.85 48.1 109.79 68.91 109.79 68.91 114.31 53.87 114.31 53.87 122.48 67.71 122.48 67.71 126.92 53.87 126.92 53.87 136.24 69.49 136.24 69.49 140.85 48.1 140.85"/><path class="cls-1" d="M99.58,128.43c0,2.48-.37,4.55-1.11,6.21-.74,1.66-1.71,3-2.91,4.02-1.2,1.02-2.56,1.75-4.08,2.17-1.52,.43-3.08,.65-4.68,.65s-3.26-.18-4.82-.53c-1.55-.35-2.93-1.02-4.13-1.99-1.2-.98-2.16-2.31-2.89-4-.72-1.69-1.09-3.86-1.09-6.52v-18.64h5.77v19.14c0,2.51,.59,4.51,1.78,6,1.18,1.49,2.97,2.24,5.37,2.24s4.16-.72,5.3-2.17c1.14-1.45,1.71-3.47,1.71-6.07v-19.14h5.77v18.64Z"/><path class="cls-1" d="M123.41,140.85l-6.26-9.36c-.8-1.24-1.55-2.23-2.26-2.95-.71-.72-1.44-1.09-2.17-1.09h-1.42v13.4h-5.77v-31.06h11.85c1.36,0,2.67,.18,3.93,.53,1.25,.35,2.36,.9,3.3,1.62,.95,.73,1.71,1.63,2.29,2.7,.58,1.08,.86,2.35,.86,3.8s-.29,2.73-.86,3.75c-.58,1.02-1.27,1.86-2.09,2.51-.82,.65-1.68,1.14-2.6,1.46-.92,.33-1.7,.54-2.35,.62,.21,.15,.43,.34,.69,.58,.25,.24,.49,.49,.71,.76,.22,.26,.43,.52,.62,.75,.19,.24,.33,.43,.42,.58l7.99,11.4h-6.88Zm-1.6-22.43c0-1.18-.46-2.18-1.38-3-.92-.82-2.31-1.23-4.17-1.23h-4.97v8.96h4.97c1.09,0,2.01-.12,2.73-.37,.72-.25,1.29-.59,1.71-1.01,.41-.43,.7-.93,.87-1.5,.16-.57,.24-1.18,.24-1.83"/><path class="cls-1" d="M159.15,125.1c0,2.75-.34,5.15-1.02,7.21-.68,2.06-1.63,3.76-2.86,5.1-1.23,1.35-2.68,2.36-4.35,3.04-1.67,.68-3.48,1.02-5.44,1.02-2.34,0-4.36-.41-6.08-1.24-1.72-.83-3.14-1.97-4.26-3.42-1.12-1.45-1.96-3.17-2.51-5.17-.55-1.99-.82-4.18-.82-6.54,0-2.72,.38-5.08,1.15-7.08,.77-2,1.8-3.65,3.08-4.97,1.29-1.32,2.74-2.29,4.37-2.93,1.63-.64,3.31-.96,5.06-.96,1.86,0,3.62,.29,5.28,.87,1.66,.58,3.1,1.5,4.35,2.77,1.24,1.27,2.23,2.92,2.95,4.95,.72,2.03,1.09,4.48,1.09,7.34m-6.04,0c0-1.63-.12-3.16-.36-4.59-.24-1.43-.65-2.68-1.22-3.75-.57-1.06-1.35-1.9-2.33-2.51-.97-.61-2.22-.91-3.73-.91s-2.66,.35-3.64,1.04c-.98,.69-1.76,1.6-2.35,2.71-.59,1.11-1.01,2.37-1.27,3.77-.25,1.4-.38,2.82-.38,4.24,0,1.57,.1,3.08,.31,4.55,.21,1.46,.59,2.76,1.15,3.88,.56,1.12,1.34,2.03,2.33,2.73,.99,.69,2.27,1.04,3.84,1.04,1.48,0,2.71-.32,3.7-.95,.99-.64,1.78-1.5,2.35-2.6,.58-1.09,.98-2.38,1.22-3.86,.24-1.48,.36-3.08,.36-4.79"/><path class="cls-1" d="M138.56,11.96c0-3.71,2.69-5.38,5.47-5.38h3.89v4.45h-2.55c-.83,0-1.44,.51-1.44,1.53v10.34h-5.38V11.96Zm-13.45,2.78c0,2.36,1.53,3.99,3.66,3.99s3.62-1.62,3.62-3.99-1.48-3.99-3.62-3.99-3.66,1.62-3.66,3.99m-5.1,0c0-4.92,3.9-8.49,8.76-8.49s8.72,3.57,8.72,8.49-3.85,8.49-8.72,8.49-8.76-3.57-8.76-8.49m-7.33-8.16v4.68h-1.39c-1.95,0-3.2,1.39-3.2,3.57s1.3,3.62,3.57,3.62h1.95V0h5.38V22.91h-7.74c-4.87,0-8.54-3.29-8.54-8.16,0-5.19,3.99-8.16,8.12-8.16h1.85Zm36.22-1.21c0-3.71,2.69-5.38,5.47-5.38h4.78V4.31h-3.34c-.88,0-1.44,.51-1.44,1.53v.84h4.78v4.36h-4.78v11.87h-5.47V5.38Zm-47.35,17.53h-5.19V12.89c0-1.16-.65-1.76-1.67-1.76h-2.74v11.78h-5.19V6.59h9.09c3.01,0,5.7,1.67,5.7,5.61v10.71ZM20.78,15.63c.18,1.9,1.81,3.01,3.71,3.01,2.27,0,3.57-1.3,3.57-1.3l2.78,3.85s-2.13,2.09-6.35,2.09c-4.82,0-8.86-3.43-8.86-8.53s3.89-8.49,8.72-8.49,8.53,3.2,8.53,8.25v1.11h-12.1Zm7.14-1.72c-.09-1.95-1.53-3.34-3.53-3.34s-3.48,1.44-3.62,3.34h7.14Zm29.63,9v-4.68h1.39c1.95,0,3.2-1.39,3.2-3.57s-1.3-3.62-3.57-3.62h-1.95V29.49h-5.38V6.59h7.74c4.87,0,8.53,3.29,8.53,8.16,0,5.19-3.99,8.16-8.12,8.16h-1.85Zm-17.2,0v-4.68h1.39c1.95,0,3.2-1.39,3.2-3.57s-1.3-3.62-3.57-3.62h-1.95V29.49h-5.38V6.59h7.74c4.87,0,8.53,3.29,8.53,8.16,0,5.19-3.99,8.16-8.12,8.16h-1.85Zm33.25-7.28c.19,1.9,1.81,3.01,3.71,3.01,2.27,0,3.57-1.3,3.57-1.3l2.78,3.85s-2.13,2.09-6.35,2.09c-4.82,0-8.86-3.43-8.86-8.53s3.9-8.49,8.72-8.49,8.53,3.2,8.53,8.25v1.11h-12.1Zm7.14-1.72c-.09-1.95-1.53-3.34-3.52-3.34s-3.48,1.44-3.62,3.34h7.14Z"/><path class="cls-1" d="M53.15,59.34l-1.13,1.7h-1.2l-.22-8.64h.8c1.42,3.92,3.61,7.65,7.84,7.65,3.07,0,4.56-1.88,4.56-4.65,0-2.25-1.13-3.95-3.36-4.91-1.9-.81-3.25-1.33-5.15-2.22-2.52-1.18-4.05-3.25-4.05-6.46,0-3.91,3.07-6.83,7.08-6.83,1.75,0,3.94,.78,5.15,1.77l1.06-1.66h1.24l.18,8.38h-.8c-1.39-4.17-3.03-7.39-7.51-7.39-.99,0-3.47,.89-3.47,3.76,0,2.25,.99,3.55,3.07,4.77,1.68,1,3.39,1.44,4.89,2.18,2.77,1.4,4.82,2.88,4.82,6.68,0,4.51-3.36,7.68-7.92,7.68-2.81,0-4.82-.92-5.87-1.81"/><path class="cls-1" d="M67.89,52.25c0-4.54,2.88-8.75,7.52-8.75,3.43,0,5.18,2.03,5.18,4.28,0,1.22-.69,2.07-1.86,2.07-.66,0-1.97-.41-1.97-1.85,0-1.55,.44-1.59,.44-2.29-.18-1.07-.69-1.33-1.82-1.33-1.97,0-3.87,1.96-3.87,7.53,0,4.47,1.6,7.57,4.45,7.57,2.26,0,3.65-1.15,4.71-3.29l.73,.52c-1.24,2.44-3.57,4.4-6.24,4.4-4.85,0-7.26-3.77-7.26-8.86"/><path class="cls-1" d="M81.79,59.94c.58-.04,1.06-.11,1.49-.26,.62-.22,.91-.92,.91-1.66v-10.6c-.07-.78-.36-1.44-.91-1.85-.4-.3-1.42-.67-2.01-.7v-.7l5.98-.41,.22,.26v13.78c0,.78,.33,1.4,.91,1.7,.51,.26,1.1,.41,1.5,.44v.74h-8.1v-.74Zm1.57-22.9c0-1.26,.98-2.33,2.19-2.33,1.35,0,2.26,1,2.26,2.18,0,1.29-.95,2.4-2.26,2.4-1.2,0-2.19-1.04-2.19-2.25"/><path class="cls-1" d="M89.74,52.18c0-4.43,2.63-8.68,7.12-8.68s6.31,3.32,6.31,7.09v.33h-9.85v.41c0,4.76,1.39,8.16,4.82,8.16,2.48,0,3.39-1.03,4.63-3.29l.66,.44c-1.17,2.62-3.43,4.47-6.24,4.47-5.07,0-7.44-4.06-7.44-8.94m9.92-2.14c0-2.66-.51-5.69-2.85-5.69-1.97,0-3.43,2.29-3.5,5.76l6.35-.07Z"/><path class="cls-1" d="M103.38,59.94c.58-.04,1.06-.11,1.5-.26,.62-.22,.91-.85,.91-1.66v-10.6c-.07-.78-.36-1.55-.91-1.96-.36-.3-1.09-.55-1.68-.59v-.7l5.62-.41,.26,.26v2.51h.04c1.28-1.37,2.52-3.03,5.33-3.03,3.06,0,4.49,2.33,4.49,5.84v8.53c0,.81,.25,1.37,.84,1.66,.47,.22,.91,.37,1.53,.41v.74h-8.1v-.74c.55-.04,1.13-.11,1.53-.26,.62-.22,.88-.85,.88-1.66v-8.75c0-2.55-1.24-3.91-2.63-3.91-2.3,0-3.58,1.55-3.9,2.4v10.08c0,.81,.29,1.37,.84,1.66,.44,.26,1.02,.41,1.53,.44v.74h-8.06v-.74Z"/><path class="cls-1" d="M120.72,52.25c0-4.54,2.88-8.75,7.52-8.75,3.43,0,5.18,2.03,5.18,4.28,0,1.22-.69,2.07-1.86,2.07-.66,0-1.97-.41-1.97-1.85,0-1.55,.44-1.59,.44-2.29-.18-1.07-.69-1.33-1.82-1.33-1.97,0-3.87,1.96-3.87,7.53,0,4.47,1.6,7.57,4.45,7.57,2.26,0,3.65-1.15,4.71-3.29l.73,.52c-1.24,2.44-3.57,4.4-6.24,4.4-4.85,0-7.26-3.77-7.26-8.86"/><path class="cls-1" d="M134.25,52.18c0-4.43,2.63-8.68,7.12-8.68s6.31,3.32,6.31,7.09v.33h-9.85v.41c0,4.76,1.39,8.16,4.82,8.16,2.48,0,3.39-1.03,4.63-3.29l.66,.44c-1.17,2.62-3.43,4.47-6.24,4.47-5.07,0-7.44-4.06-7.44-8.94m9.92-2.14c0-2.66-.51-5.69-2.85-5.69-1.97,0-3.43,2.29-3.5,5.76l6.35-.07Z"/></g></g></g></svg>