<?xml version="1.0" encoding="utf-8"?>
<!-- Generator: Adobe Illustrator 28.0.0, SVG Export Plug-In . SVG Version: 6.00 Build 0)  -->
<svg version="1.1" id="Layer_2_00000060022739842706108410000016280209523593100450_"
	 xmlns="http://www.w3.org/2000/svg" xmlns:xlink="http://www.w3.org/1999/xlink" x="0px" y="0px" viewBox="0 0 360 360"
	 style="enable-background:new 0 0 360 360;" xml:space="preserve">
<style type="text/css">
	.st0{fill:#FFFFFF;}
	.st1{fill:#63656A;}
	.st2{fill:#215482;}
</style>
<rect class="st0" width="360" height="360"/>
<g>
	<g>
		<path id="Path_43_00000183239393157722971810000013767058933912255930_" class="st1" d="M302.9,179.9L245.3,75.8H33.1
			c-10.6,0-19.2,8.6-19.2,19.2c0,0,0,0,0,0v170c0,10.6,8.6,19.2,19.2,19.2c0,0,0,0,0,0h212L302.9,179.9z M121.8,226.8h-17.2
			l-42.4-68.5h-0.4v68.5H46.2v-93.2h17.2l42.5,68.6h0.3v-68.6h15.5V226.8z M154.1,226.8h-16.3v-93.2h16.3V226.8z M245.5,133.6v93.2
			h-16.3v-42h-42.4v42h-16.3v-93.2h16.3v37.1h42.4v-37.1H245.5z"/>
		<path id="Path_44" class="st2" d="M259.6,284.2l57.7-104.3L259.8,75.8h14.4c8.7,0.5,16.6,5.2,21.3,12.5l50.6,91.6l-50.8,91.7
			c-4.6,7.4-12.6,12.1-21.3,12.5H259.6z"/>
	</g>
</g>
</svg>
