<?xml version="1.0" encoding="UTF-8"?><svg id="Layer_2" xmlns="http://www.w3.org/2000/svg" viewBox="0 0 287.27 287.27"><defs><style>.cls-1{fill:#e87722;}.cls-2{fill:#fff;}</style></defs><g id="Layer_1-2"><rect class="cls-2" width="287.27" height="287.27"/><g><g id="O00000ff"><path d="M143.58,10.37c1.32,1.85,2.45,3.84,3.83,5.65,7.86,10.94,18.29,19.99,30.16,26.35,10.18,5.47,21.42,8.95,32.9,10.23,12.47,1.42,25.22,.25,37.25-3.35,.64,7.49,.92,15,.93,22.51v.15c-.14,17.07-1.95,34.12-5.48,50.82-62.85,0-125.71,0-188.56,0-3.48-.06-6.96,.12-10.43-.09-.02,.12-.07,.36-.09,.48-.05-.03-.15-.09-.2-.13,.18-.46,0-.92-.08-1.37-3.22-15.49-4.9-31.3-5.15-47.12v-7.19c.14-6.03,.43-12.05,.95-18.06,1.86,.49,3.7,1.04,5.57,1.46,17.33,4.09,35.86,3.07,52.6-3.02,18.89-6.8,35.44-20.11,45.82-37.34m-17.48,47.9c-3.39,.72-6.83,1.26-10.31,1.21-3.68-.04-7.44-.37-10.88-1.75,0,14.86,0,29.71,0,44.57,1.97,.95,4.16,1.35,6.32,1.62,3.86,.41,7.79,.35,11.62-.36,4.26-.69,8.45-2.02,12.8-1.92,2.59,.02,5.28,.69,7.3,2.38-.01-14.68,0-29.35,0-44.03-1.39-1.88-3.74-2.76-6-2.98-3.66-.33-7.28,.52-10.85,1.26m18.25,1.73c0,14.64,0,29.28,0,43.92,1.48-.99,3.1-1.81,4.89-2.07,5.09-.83,10.08,.85,15.05,1.67,3.88,.73,7.86,.8,11.77,.39,2.17-.27,4.37-.67,6.35-1.63-.02-14.86,.03-29.72-.03-44.58-4.28,1.72-9,1.88-13.55,1.69-5.74-.25-11.21-2.43-16.96-2.47-2.75-.02-5.82,.75-7.53,3.08m-43.5,3.52c.02,14.82-.05,29.64,.03,44.46,6.59,.85,13.23,1.46,19.88,1.14,5.92-.3,11.8-1.1,17.72-1.43-.03,.93,.02,1.87-.03,2.8,3.26,1.41,7.07,1.28,10.35,.02-.02-.95,0-1.9-.05-2.84,2.87,.23,5.75,.45,8.62,.69,2.61,.27,5.21,.55,7.84,.68,7.07,.47,14.17-.15,21.18-1.07,.04-14.81,0-29.62,.02-44.44-.85-.27-1.72-.47-2.58-.71,0,13.41,0,26.82,0,40.23-1.76,1.09-3.8,1.57-5.81,1.95-4.31,.7-8.74,.7-13.06,.02-4.53-.69-8.98-2.15-13.6-2.03-2.59,.06-5.37,.9-7,3.04-.48,0-.95,0-1.43,0-1.62-2.16-4.43-2.97-7.02-3.04-4.79-.12-9.39,1.45-14.1,2.11-4.13,.6-8.35,.57-12.47-.09-2.02-.39-4.08-.86-5.84-1.96-.01-13.42,0-26.83,0-40.25-.88,.23-1.77,.47-2.65,.71m86.96,6.98c.01,2.44-.03,4.88,.02,7.32,1.28-.02,2.56,0,3.84-.01,.01-2.43-.02-4.85,.02-7.28-1.29-.08-2.58-.02-3.87-.03m-92.22,0c0,2.44,0,4.87,0,7.31,1.28,0,2.57,0,3.85,0,0-2.44,0-4.87,0-7.31-1.29,0-2.57,0-3.85,0m0,21.63c0,2.43,0,4.87,0,7.31,1.27,.01,2.54-.02,3.82,.02,.1-2.43,0-4.87,.05-7.3-1.29-.05-2.58-.01-3.87-.02m92.21,.01c.01,2.42,.02,4.85,0,7.28,1.29,.05,2.58,.01,3.87,.02,0-2.44,0-4.87,0-7.31-1.29,0-2.58-.02-3.87,.01Z"/><path d="M164.05,65.59c1.89-.44,4,.79,4.51,2.67,.57,1.85-.48,4.01-2.3,4.7-1.72,.76-3.95,0-4.83-1.67-.56-1.13-.57-2.52-.05-3.67,.5-1.04,1.54-1.78,2.66-2.03m.21,.48c-1.45,.6-1.67,2.45-1.58,3.82,.05,1.2,.63,2.77,2.02,2.88,1.16,.13,1.99-.95,2.15-1.99,.21-1.29,.25-2.76-.49-3.91-.42-.71-1.32-1.04-2.11-.8Z"/><path d="M109.79,65.78c1.4-.07,2.81-.02,4.22-.04,0,.77-1.41,.09-1.21,1,.55,1.47,1.22,2.9,1.85,4.35,.05,.03,.16,.08,.22,.1,.5-1.42,1.35-2.72,1.69-4.19,.18-.67-.58-.81-1.04-.93-.25-.08-.03-.49,.22-.35,.98,.03,1.95,0,2.93,.02,.34,.09,0,.46-.21,.4-.48,.1-.94,.38-1.13,.86-.99,2.07-1.91,4.17-2.91,6.24-.09-.01-.28-.03-.38-.04-.85-2-1.72-4-2.66-5.96-.2-.37-.4-.84-.85-.98-.26-.15-.74-.08-.73-.49Z"/><path d="M119.54,65.68c2.31,.01,4.62,.02,6.93,.08,.04,.62,.08,1.24,.11,1.86-.53,.18-.63-.51-.95-.76-.76-1.02-2.15-.66-3.23-.69-.05,.91-.06,1.82-.05,2.73,.93,.12,1.98-.24,2.16-1.27,.08-.01,.25-.03,.34-.04-.05,1.07-.04,2.15-.03,3.22-.54,.07-.44-.61-.64-.93-.39-.6-1.21-.55-1.84-.54,.13,1.01-.3,2.21,.3,3.1,.7,.31,1.54,.14,2.29,.16,.98,0,1.41-1.03,1.87-1.72,.1,.03,.3,.08,.4,.1,.02,.67-.02,1.33,.02,2-.48,.15-.98,.09-1.47,.1-2.12-.04-4.23-.07-6.35-.04,0-.79,1.15-.17,1.33-.8,.3-1.81,.13-3.67,.12-5.5,.06-.9-1.38-.27-1.3-1.06Z"/><path d="M128.43,65.76c2.58,0,5.16,0,7.74-.03,.04,.78,.04,1.56,0,2.34-.58,.04-.57-.65-.86-.99-.45-.8-1.44-.92-2.26-.89,0,1.93-.06,3.85,.03,5.78,.03,.85,1.28,.32,1.43,1.06-1.47,.02-2.94-.03-4.4,.03-.13-.6,.57-.36,.89-.52,.44-.02,.61-.45,.57-.84,.02-1.84,.07-3.68-.03-5.52-.8-.05-1.7,.08-2.17,.81-.32,.28-.4,.99-.91,.93-.11-.72-.04-1.45-.03-2.17Z"/><path d="M150.19,65.68c.8,.02,1.6-.01,2.39,.09,1.7,1.74,3.42,3.48,5,5.34,0-1.47,.17-2.98-.14-4.42-.14-.79-1.43-.17-1.43-1.01,1.24,.11,2.48-.03,3.72,.11-.32,.56-1.38,.36-1.47,1.21-.22,2.03-.11,4.11-.05,6.16-.45,.31-.7-.31-1-.52-1.63-1.7-3.25-3.41-4.9-5.09,.17,1.51-.12,3.07,.27,4.54,.21,.66,1.31,.28,1.34,.97-1.18-.02-2.36,0-3.54-.01,.13-.53,.78-.38,1.12-.66,.41-.26,.27-.8,.32-1.2-.01-1.22,.04-2.45-.05-3.67-.02-.76-.74-1.23-1.39-1.44-.05-.09-.15-.28-.2-.37Z"/><path d="M169.51,66.03c.03-.08,.08-.23,.11-.31,1.33,.08,2.65-.01,3.98,.03,.03,.08,.09,.22,.12,.3-.44,.13-1.29-.01-1.23,.67,.62,1.56,1.26,3.12,2.02,4.62,.51-1.56,1.57-2.96,1.75-4.6,0-.74-1.19-.27-1.15-1,1.14,.03,2.28,0,3.42,.03,.01,.42-.46,.36-.72,.5-.36,.1-.63,.41-.78,.75-.99,2.08-1.91,4.19-2.92,6.26-.09-.03-.29-.09-.38-.12-.92-2.12-1.8-4.26-2.87-6.32-.24-.54-.84-.65-1.34-.81Z"/><path d="M110.86,77.29c2.57,.08,5.14,0,7.7,0,0,.73,.03,1.47,0,2.2-.44,.41-.56-.41-.76-.66-.39-.92-1.46-1.13-2.36-1.1,.02,2-.12,4,.07,5.99,.2,.66,1.4,.12,1.33,.89-1.44-.02-2.87-.03-4.31,0v-.36c.47-.12,1.42-.04,1.4-.76,.05-1.92,.08-3.84-.02-5.76-.69,.01-1.49,0-1.97,.59-.43,.34-.51,1.05-1.07,1.21-.14-.75-.12-1.51-.02-2.26Z"/><path d="M119.96,77.6c-.22-.07-.04-.51,.21-.34,2.18,0,4.36,0,6.53,.07,.3,.55,.12,1.3,.19,1.92-.54,.01-.65-.62-1-.9-.79-.92-2.13-.6-3.19-.55,0,.9-.04,1.79-.02,2.69,.63-.02,1.37,0,1.83-.53,.17-.24,.22-1.09,.67-.68-.09,1.05,0,2.1-.07,3.14-.58,.03-.37-.72-.67-1.03-.43-.53-1.18-.48-1.79-.46,.15,1.03-.38,2.35,.41,3.18,1.12,.06,2.66,.49,3.4-.63,.37-.33,.42-1.09,1.03-1.04-.03,.72,.16,1.53-.08,2.2-2.56,.05-5.11-.08-7.67-.02-.12-.81,1.2-.13,1.32-.84,.29-1.83,.13-3.7,.1-5.53-.09-.58-.8-.48-1.21-.64Z"/><path d="M130.47,77.5c.98-.62,2.31-.53,3.29,.06,.14-.25,.88-.67,.8-.08-.08,.68-.05,1.37,.03,2.06-.61,.17-.61-.58-.87-.94-.46-1.15-2.32-1.37-2.99-.33-.4,.72,.32,1.41,.98,1.58,.97,.41,2.1,.54,2.91,1.27,.93,.89,.69,2.6-.43,3.23-1.13,.77-2.57,.46-3.74-.03-.31,.2-.63,.28-.98,.23,.12-.82,.04-1.64,.11-2.46,.61,0,.62,.7,.89,1.09,.52,1.15,2.31,1.58,3.24,.7,.56-.5,.36-1.49-.3-1.81-.99-.53-2.21-.59-3.1-1.33-1.03-.77-.94-2.57,.15-3.25Z"/><path d="M149.56,77.29c2.57,.07,5.14-.01,7.71,0,0,.74,.03,1.48,0,2.22-.09,.02-.28,.05-.37,.07-.29-.51-.48-1.11-.98-1.46-.51-.38-1.18-.34-1.78-.39,.02,1.99-.11,4,.07,5.98,.2,.67,1.38,.13,1.35,.89-1.44-.02-2.88-.03-4.32,.01l-.02-.36c.48-.12,1.43-.03,1.42-.76,.05-1.92,.07-3.84-.02-5.76-.69,.01-1.48,0-1.96,.59-.43,.35-.51,1.04-1.07,1.22-.16-.74-.11-1.51-.04-2.26Z"/><path d="M161.43,77.62c.11-.34,.5-.75,.83-.36,1.04,2.13,1.76,4.42,2.89,6.5,.18,.58,1.25,.23,1.16,.89-1.34-.04-2.67-.04-4.01-.02-.08-.65,.84-.21,1.08-.65,.04-.72-.39-1.37-.6-2.04-.9-.09-1.82-.06-2.72-.01-.23,.64-.55,1.28-.53,1.98,.31,.41,1.21,.06,1.15,.71-1.09-.03-2.19-.02-3.28,0-.03-.62,.87-.35,1.11-.82,1.2-1.95,1.81-4.19,2.93-6.19m-1.14,3.8c.75,0,1.49,0,2.24,0-.36-.86-.72-1.71-1.06-2.57-.5,.8-.85,1.69-1.17,2.58Z"/><path d="M166.95,77.32c1.11-.05,2.23,0,3.34-.01,.81,1.7,1.57,3.42,2.35,5.13,.78-1.71,1.54-3.44,2.45-5.08,1.01-.05,2.04-.14,3.04,0-.02,.07-.06,.2-.08,.27-.52,.09-1.26,.22-1.26,.9-.04,1.64-.1,3.3,.05,4.94,.04,.66,.7,.85,1.26,.84v.35c-1.34-.02-2.68-.02-4.01-.02l-.02-.35c.45-.06,1.15-.02,1.22-.63,.09-1.89,.01-3.79,.04-5.68-1.09,2.16-2.01,4.43-3.11,6.56-1.24-2.09-2.04-4.45-3.26-6.56,0,1.71-.02,3.43,.07,5.13,.05,.75,.76,1.2,1.46,1.22v.32c-1.18,0-2.36-.05-3.53,0-.04-.74,1.33-.31,1.36-1.14,.17-1.66,.1-3.34,.05-5.01-.02-.72-.85-.73-1.37-.82l-.05-.35Z"/><path d="M114.21,88.83c2.29,0,4.58,.03,6.88,.05,.1,.63,.1,1.26,.14,1.89-.53,.13-.64-.51-.96-.79-.78-.97-2.17-.71-3.25-.6,0,.89-.03,1.77-.02,2.66,.85,.06,1.99-.14,2.09-1.18,.1-.04,.32-.12,.42-.15-.05,1.08-.05,2.16-.02,3.25-.65,.09-.42-.64-.69-.98-.42-.55-1.2-.52-1.81-.49,.16,1.03-.39,2.41,.45,3.2,1.12,.02,2.65,.47,3.38-.67,.37-.29,.43-1.26,1.05-.91-.04,.7,.03,1.42-.08,2.12-2.57,.01-5.14-.09-7.71-.04-.12-.79,1.32-.13,1.34-.95,.22-1.73,.1-3.49,.09-5.23,.06-.73-.8-.74-1.3-.82v-.36Z"/><path d="M123.2,88.83c.81,.09,1.72-.14,2.46,.19,1.67,1.71,3.29,3.46,4.93,5.19-.1-1.49,.19-3.03-.22-4.47-.19-.67-1.47-.12-1.37-.93,1.19,.07,2.38,.06,3.57,.04l.03,.31c-.74,.04-1.46,.58-1.46,1.37-.05,1.86-.07,3.73,.02,5.59,0,.27-.3,.37-.47,.17-1.84-1.83-3.57-3.76-5.42-5.58,.13,1.41-.03,2.84,.18,4.24,.11,.7,.93,.79,1.48,.96-.04,.07-.12,.2-.16,.27-1.12,0-2.25-.01-3.38,.01-.02-.69,1.13-.31,1.3-.96,.19-1.46,.08-2.96,.06-4.44,.06-.89-.77-1.4-1.5-1.65l-.07-.33Z"/><path d="M149.33,91.06c.04-.73-.11-1.48,.1-2.19,2.56,.12,5.12-.02,7.68,.03-.01,.73,.03,1.47-.02,2.2l-.3,.16c-.31-.51-.51-1.12-.98-1.51-.52-.41-1.22-.4-1.84-.41,0,1.89-.04,3.78,.02,5.67-.03,.72,.81,.74,1.32,.81,.02,.09,.07,.26,.1,.34-1.43,.06-2.86-.02-4.28,.05-.26-.67,.89-.38,1.26-.67,.24-2.05,.11-4.13,.09-6.19-.77-.04-1.63,.04-2.11,.72-.37,.31-.43,1.08-1.01,.99Z"/><path d="M157.55,88.88c1.35,.04,2.69,0,4.04,0,.04,.07,.13,.19,.18,.26-.42,.09-.84,.2-1.25,.34l.03,.58c.6,1.49,1.28,2.94,1.9,4.43,.48-.86,.81-1.78,1.22-2.67,.28-.66,.68-1.32,.59-2.06-.16-.61-1.21-.17-1.14-.88,1.08,.02,2.16,.04,3.24,0,.04,.08,.12,.25,.16,.34-.58,.1-1.21,.31-1.46,.9-1,2.07-1.92,4.19-2.93,6.26-.22,.15-.37,.1-.45-.16-.81-1.9-1.64-3.79-2.53-5.65-.2-.38-.37-.82-.75-1.06-.28-.24-1-.04-.85-.61Z"/><path d="M167.12,88.87c1.12,.03,2.24,.03,3.35,.03,.65,1.41,1.3,2.83,1.94,4.25,.15,.26,.19,.64,.5,.78,.68-1.74,1.46-3.45,2.43-5.05,.98,.03,1.96-.04,2.94,0,0,.65-1.07,.26-1.24,.9-.23,1.09-.06,2.23-.12,3.34,.04,.8-.12,1.68,.28,2.41,.21,.49,1.16,.02,1.09,.68-1.34-.03-2.7,.05-4.02-.07l-.09-.25c.52-.07,1.32-.08,1.3-.8,.05-1.86,0-3.72,.03-5.57-1.01,2.18-2.11,4.31-2.98,6.55-.08-.04-.25-.13-.33-.18-1.03-2.11-1.95-4.29-3.05-6.36-.02,1.74-.03,3.49,.08,5.23,.07,.72,.76,1.08,1.41,1.15,.01,.08,.04,.24,.06,.31-1.2,0-2.39-.04-3.59-.03,0-.73,1.31-.28,1.37-1.08,.17-1.74,.16-3.52,.02-5.26-.12-.8-1.47-.17-1.37-.98Z"/><path d="M100.47,167.55c14.35-13.72,28.72-27.42,43.05-41.16,23.82,22.73,47.58,45.53,71.4,68.27,.29,.3,.56,.61,.84,.92-6.76,11.86-14.38,23.23-22.91,33.89-.1-.08-.32-.24-.43-.32-16.31-15.74-32.59-31.52-48.89-47.26-13.18,12.78-26.39,25.54-39.59,38.31-3.19,3.04-6.28,6.18-9.53,9.16-2.11-2.54-4.06-5.2-6.04-7.84-6.15-8.39-11.84-17.11-16.92-26.19,9.62-9.31,19.35-18.51,29.01-27.78Z"/></g><g id="ffffffff"><path class="cls-2" d="M126.1,58.27c3.56-.73,7.18-1.59,10.85-1.26,2.26,.22,4.61,1.09,6,2.98,0,14.68,0,29.35,0,44.03-2.02-1.7-4.7-2.36-7.3-2.38-4.35-.09-8.55,1.23-12.8,1.92-3.83,.71-7.76,.76-11.62,.36-2.16-.27-4.34-.67-6.32-1.62,0-14.86,0-29.71,0-44.57,3.44,1.39,7.2,1.71,10.88,1.75,3.47,.05,6.92-.49,10.31-1.21m-16.31,7.51c0,.41,.47,.35,.73,.49,.44,.14,.64,.6,.85,.98,.94,1.96,1.81,3.95,2.66,5.96,.09,.01,.28,.03,.38,.04,.99-2.07,1.92-4.17,2.91-6.24,.19-.48,.65-.76,1.13-.86,.21,.06,.55-.32,.21-.4-.98,0-1.95,.02-2.93-.02-.25-.15-.47,.26-.22,.35,.46,.12,1.22,.26,1.04,.93-.34,1.47-1.19,2.77-1.69,4.19-.05-.03-.16-.08-.22-.1-.62-1.44-1.3-2.87-1.85-4.35-.2-.92,1.21-.23,1.21-1-1.41,.02-2.82-.03-4.22,.04m9.74-.1c-.08,.79,1.36,.16,1.3,1.06,.02,1.83,.19,3.69-.12,5.5-.18,.63-1.32,.01-1.33,.8,2.12-.03,4.23,0,6.35,.04,.49,0,.99,.06,1.47-.1-.03-.67,0-1.33-.02-2-.1-.03-.3-.08-.4-.1-.47,.69-.89,1.73-1.87,1.72-.76-.02-1.59,.15-2.29-.16-.6-.89-.18-2.08-.3-3.1,.63-.02,1.45-.06,1.84,.54,.2,.32,.1,1,.64,.93,0-1.07-.02-2.15,.03-3.22-.09,.01-.26,.03-.34,.04-.18,1.03-1.23,1.39-2.16,1.27-.01-.91,0-1.82,.05-2.73,1.09,.03,2.47-.33,3.23,.69,.32,.25,.42,.94,.95,.76-.03-.62-.07-1.24-.11-1.86-2.31-.06-4.62-.06-6.93-.08m8.89,.08c0,.72-.08,1.45,.03,2.17,.5,.06,.59-.65,.91-.93,.47-.74,1.37-.87,2.17-.81,.09,1.84,.04,3.68,.03,5.52,.04,.39-.13,.82-.57,.84-.32,.16-1.02-.08-.89,.52,1.47-.06,2.94-.01,4.4-.03-.15-.75-1.4-.21-1.43-1.06-.09-1.92-.03-3.85-.03-5.78,.82-.04,1.81,.09,2.26,.89,.29,.34,.27,1.02,.86,.99,.04-.78,.04-1.56,0-2.34-2.58,.03-5.16,.03-7.74,.03m-17.56,11.53c-.09,.75-.12,1.52,.02,2.26,.56-.16,.65-.87,1.07-1.21,.48-.59,1.27-.58,1.97-.59,.09,1.92,.06,3.84,.02,5.76,.02,.72-.93,.64-1.41,.76v.36c1.45-.04,2.88-.03,4.32,0,.07-.77-1.13-.22-1.33-.89-.19-1.98-.05-3.99-.07-5.99,.9-.03,1.97,.17,2.36,1.1,.2,.25,.32,1.07,.76,.66,.03-.73,0-1.47,0-2.2-2.57-.02-5.14,.07-7.7,0m9.09,.31c.41,.16,1.12,.05,1.21,.64,.03,1.84,.19,3.71-.1,5.53-.12,.71-1.43,.03-1.32,.84,2.56-.07,5.12,.07,7.67,.02,.24-.67,.05-1.48,.08-2.2-.61-.05-.66,.71-1.03,1.04-.74,1.12-2.28,.7-3.4,.63-.79-.83-.26-2.15-.41-3.18,.61-.02,1.37-.07,1.79,.46,.3,.31,.09,1.06,.67,1.03,.06-1.05-.02-2.1,.07-3.14-.45-.41-.5,.44-.67,.68-.46,.52-1.2,.5-1.83,.53-.02-.9,.02-1.79,.02-2.69,1.06-.04,2.4-.36,3.19,.55,.35,.28,.46,.92,1,.9-.07-.62,.12-1.37-.19-1.92-2.18-.06-4.36-.07-6.53-.07-.25-.16-.43,.27-.21,.34m10.52-.1c-1.1,.67-1.18,2.47-.15,3.25,.89,.74,2.11,.8,3.1,1.33,.66,.32,.86,1.3,.3,1.81-.93,.88-2.72,.45-3.24-.7-.27-.39-.28-1.09-.89-1.09-.08,.82,0,1.64-.11,2.46,.35,.05,.67-.03,.98-.23,1.18,.49,2.61,.81,3.74,.03,1.11-.63,1.36-2.34,.43-3.23-.81-.73-1.94-.86-2.91-1.27-.66-.16-1.38-.85-.98-1.58,.67-1.04,2.53-.82,2.99,.33,.26,.36,.26,1.1,.87,.94-.09-.68-.12-1.37-.03-2.06,.08-.59-.66-.18-.8,.08-.97-.6-2.31-.69-3.29-.06m-16.27,11.34v.36c.49,.08,1.35,.09,1.29,.82,.01,1.74,.14,3.5-.09,5.23-.01,.82-1.46,.16-1.34,.95,2.57-.05,5.14,.05,7.71,.04,.11-.7,.04-1.41,.08-2.12-.63-.35-.68,.62-1.05,.91-.73,1.14-2.26,.7-3.38,.67-.84-.79-.29-2.16-.45-3.2,.62-.03,1.39-.06,1.81,.49,.27,.34,.04,1.07,.69,.98-.04-1.08-.03-2.17,.02-3.25-.11,.04-.32,.12-.42,.15-.09,1.04-1.24,1.24-2.09,1.18,0-.89,.03-1.77,.02-2.66,1.08-.11,2.47-.37,3.25,.6,.32,.28,.43,.92,.96,.79-.03-.63-.03-1.27-.14-1.89-2.29-.02-4.58-.06-6.88-.05m8.99,0l.07,.33c.73,.24,1.55,.76,1.5,1.65,.02,1.47,.13,2.97-.06,4.44-.17,.65-1.32,.27-1.3,.96,1.12-.03,2.25,0,3.38-.01,.04-.07,.12-.2,.16-.27-.55-.17-1.37-.26-1.48-.96-.22-1.4-.05-2.83-.18-4.24,1.85,1.81,3.58,3.75,5.42,5.58,.17,.2,.47,.11,.47-.17-.09-1.86-.07-3.73-.02-5.59,0-.79,.72-1.32,1.46-1.37l-.03-.31c-1.19,.02-2.38,.03-3.57-.04-.11,.8,1.18,.25,1.37,.93,.4,1.45,.11,2.99,.22,4.47-1.64-1.73-3.26-3.49-4.93-5.19-.75-.33-1.66-.1-2.46-.19Z"/><path class="cls-2" d="M144.35,60c1.71-2.33,4.78-3.09,7.53-3.08,5.75,.03,11.22,2.22,16.96,2.47,4.55,.19,9.27,.03,13.55-1.69,.06,14.86,0,29.72,.03,44.58-1.98,.97-4.18,1.36-6.35,1.63-3.92,.41-7.9,.34-11.77-.39-4.97-.83-9.96-2.5-15.05-1.67-1.78,.25-3.4,1.08-4.89,2.07,0-14.64,0-29.28,0-43.92m19.7,5.59c-1.11,.26-2.15,.99-2.66,2.03-.53,1.15-.52,2.53,.05,3.67,.88,1.67,3.11,2.42,4.83,1.67,1.81-.68,2.86-2.85,2.3-4.7-.51-1.89-2.62-3.11-4.51-2.67m-13.86,.09c.05,.09,.15,.28,.2,.37,.65,.21,1.37,.68,1.39,1.44,.09,1.22,.04,2.45,.05,3.67-.05,.4,.08,.95-.32,1.2-.35,.29-1,.14-1.12,.66,1.18,.01,2.36,0,3.54,.01-.03-.69-1.12-.31-1.34-.97-.39-1.47-.1-3.03-.27-4.54,1.65,1.68,3.27,3.39,4.9,5.09,.3,.21,.55,.84,1,.52-.05-2.05-.16-4.12,.05-6.16,.09-.85,1.15-.65,1.47-1.21-1.23-.14-2.48,0-3.72-.11,0,.84,1.29,.22,1.43,1.01,.31,1.45,.14,2.96,.14,4.42-1.58-1.86-3.3-3.59-5-5.34-.79-.1-1.59-.07-2.39-.09m19.32,.35c.5,.16,1.1,.27,1.34,.81,1.06,2.05,1.95,4.2,2.87,6.32,.09,.03,.29,.09,.38,.12,1.01-2.07,1.93-4.18,2.92-6.26,.15-.33,.42-.64,.78-.75,.26-.14,.73-.08,.72-.5-1.14-.04-2.28,0-3.42-.03-.04,.72,1.15,.26,1.15,1-.18,1.64-1.24,3.04-1.75,4.6-.76-1.49-1.4-3.06-2.02-4.62-.05-.68,.8-.54,1.23-.67-.03-.08-.09-.22-.12-.3-1.33-.04-2.65,.05-3.98-.03-.03,.08-.08,.24-.11,.31m-19.95,11.26c-.07,.75-.12,1.52,.04,2.26,.56-.18,.64-.87,1.07-1.22,.48-.59,1.27-.58,1.96-.59,.09,1.92,.06,3.84,.02,5.76,.01,.73-.94,.64-1.42,.76l.02,.36c1.44-.05,2.88-.03,4.32-.01,.03-.77-1.15-.22-1.35-.89-.18-1.98-.04-3.99-.07-5.98,.6,.04,1.27,0,1.78,.39,.49,.35,.69,.95,.98,1.46,.09-.02,.28-.05,.37-.07,.03-.74,0-1.48,0-2.22-2.57-.02-5.14,.06-7.71,0m11.88,.33c-1.11,2-1.72,4.24-2.93,6.19-.24,.47-1.13,.2-1.11,.82,1.09-.02,2.18-.02,3.28,0,.07-.66-.84-.3-1.15-.71-.02-.7,.3-1.34,.53-1.98,.9-.05,1.82-.08,2.72,.01,.21,.67,.64,1.31,.6,2.04-.25,.44-1.16,0-1.08,.65,1.34-.03,2.67-.03,4.01,.02,.09-.66-.98-.31-1.16-.89-1.13-2.09-1.85-4.37-2.89-6.5-.33-.39-.72,.02-.83,.36m5.52-.3l.05,.35c.52,.08,1.35,.09,1.37,.82,.05,1.66,.12,3.35-.05,5.01-.03,.83-1.39,.39-1.36,1.14,1.17-.04,2.35,0,3.52,0v-.32c-.69-.01-1.39-.47-1.44-1.22-.09-1.71-.07-3.42-.07-5.13,1.22,2.11,2.01,4.47,3.26,6.56,1.1-2.14,2.02-4.4,3.11-6.56-.03,1.89,.05,3.79-.04,5.68-.07,.61-.77,.58-1.22,.63l.02,.35c1.33,0,2.66,0,4,.02v-.35c-.55,.01-1.21-.18-1.24-.84-.15-1.64-.09-3.3-.05-4.94,0-.67,.75-.81,1.26-.9,.02-.07,.06-.2,.08-.27-1.01-.13-2.03-.05-3.04,0-.92,1.64-1.67,3.37-2.45,5.08-.78-1.71-1.55-3.43-2.35-5.13-1.12,0-2.23-.04-3.34,.01m-17.62,13.73c.59,.09,.65-.68,1.01-.99,.48-.69,1.34-.77,2.11-.72,.02,2.06,.15,4.14-.09,6.19-.37,.3-1.52,0-1.26,.67,1.43-.07,2.86,0,4.28-.05-.03-.09-.07-.26-.1-.34-.51-.07-1.35-.09-1.32-.81-.06-1.89-.01-3.78-.02-5.67,.63,.02,1.32,0,1.84,.41,.47,.39,.67,.99,.98,1.51l.3-.16c.05-.73,.01-1.47,.02-2.2-2.56-.06-5.12,.08-7.68-.03-.21,.71-.05,1.46-.1,2.19m8.22-2.18c-.15,.57,.57,.37,.85,.61,.38,.24,.55,.67,.75,1.06,.88,1.87,1.72,3.75,2.53,5.65,.08,.26,.23,.32,.45,.16,1.01-2.07,1.93-4.18,2.93-6.26,.25-.59,.88-.79,1.46-.9-.04-.08-.12-.25-.16-.34-1.08,.05-2.16,.02-3.24,0-.07,.71,.99,.26,1.14,.88,.09,.74-.31,1.4-.59,2.06-.42,.89-.75,1.81-1.22,2.67-.61-1.49-1.3-2.94-1.9-4.43l-.03-.58c.41-.14,.82-.25,1.25-.34-.04-.07-.13-.19-.18-.26-1.34,0-2.69,.05-4.04,0m9.57-.01c-.1,.81,1.26,.18,1.37,.98,.14,1.74,.15,3.52-.02,5.26-.06,.8-1.37,.35-1.37,1.08,1.2-.02,2.39,.02,3.59,.03-.02-.08-.04-.24-.06-.31-.65-.07-1.34-.43-1.41-1.15-.11-1.74-.1-3.49-.08-5.23,1.1,2.07,2.02,4.25,3.05,6.36,.08,.04,.25,.13,.33,.18,.87-2.24,1.97-4.37,2.98-6.55-.04,1.86,.02,3.72-.03,5.57,.01,.72-.78,.73-1.3,.8l.09,.25c1.32,.13,2.68,.04,4.02,.07,.08-.66-.87-.19-1.09-.68-.39-.73-.24-1.61-.28-2.41,.05-1.11-.12-2.25,.12-3.34,.17-.64,1.24-.25,1.24-.9-.98-.03-1.96,.03-2.94,0-.97,1.6-1.75,3.31-2.43,5.05-.31-.14-.35-.52-.5-.78-.64-1.42-1.29-2.84-1.94-4.25-1.12,0-2.24,0-3.35-.03Z"/><path class="cls-2" d="M100.85,63.52c.88-.24,1.76-.47,2.65-.71,0,13.42,0,26.83,0,40.25,1.77,1.1,3.83,1.57,5.84,1.96,4.12,.66,8.34,.69,12.47,.09,4.7-.66,9.3-2.23,14.1-2.11,2.59,.06,5.4,.87,7.02,3.04,.48,0,.95,0,1.43,0,1.63-2.14,4.41-2.98,7-3.04,4.63-.13,9.07,1.34,13.6,2.03,4.31,.69,8.74,.68,13.06-.02,2.01-.38,4.05-.87,5.81-1.95,.01-13.41,0-26.82,0-40.23,.86,.24,1.73,.44,2.58,.71-.03,14.81,.02,29.62-.02,44.44-7.01,.93-14.1,1.54-21.18,1.07-2.62-.13-5.23-.41-7.84-.68-2.87-.24-5.75-.46-8.62-.69,.06,.94,.03,1.89,.05,2.84-3.28,1.26-7.1,1.39-10.35-.02,.05-.93,0-1.86,.03-2.8-5.92,.33-11.8,1.12-17.72,1.43-6.65,.32-13.29-.29-19.88-1.14-.08-14.82-.01-29.64-.03-44.46Z"/><path class="cls-2" d="M164.26,66.07c.78-.24,1.68,.1,2.11,.8,.74,1.14,.7,2.61,.49,3.91-.17,1.04-1,2.12-2.15,1.99-1.39-.11-1.97-1.68-2.02-2.88-.09-1.38,.13-3.22,1.58-3.82Z"/><path class="cls-2" d="M187.81,70.5c1.29,.02,2.58-.04,3.87,.03-.03,2.42,0,4.85-.02,7.28-1.28,0-2.56,0-3.84,.01-.05-2.44-.01-4.88-.02-7.32Z"/><path class="cls-2" d="M95.59,70.5c1.28,0,2.57,0,3.85,0,0,2.44,0,4.87,0,7.31-1.28,0-2.57,0-3.85,0,0-2.44,0-4.87,0-7.31Z"/><path class="cls-2" d="M160.29,81.42c.32-.88,.67-1.78,1.17-2.58,.34,.86,.71,1.71,1.06,2.57-.75,0-1.49,0-2.24,0Z"/><path class="cls-2" d="M95.59,92.13c1.29,.01,2.58-.03,3.87,.02-.06,2.43,.05,4.87-.05,7.3-1.27-.04-2.54,0-3.82-.02,0-2.44,0-4.87,0-7.31Z"/><path class="cls-2" d="M187.8,92.14c1.29-.03,2.58,0,3.87-.01,0,2.43,0,4.87,0,7.31-1.29-.01-2.58,.03-3.87-.02,.02-2.42,.01-4.85,0-7.28Z"/></g><g id="e87722ff"><path class="cls-1" d="M44.07,123.12c.02-.12,.07-.36,.09-.48,3.47,.21,6.96,.03,10.43,.09,62.85,0,125.71,0,188.56,0-5.27,25.48-14.64,50.08-27.39,72.75-.29-.29-.55-.55-.84-.83-23.82-22.74-47.58-45.54-71.4-68.27-14.34,13.73-28.7,27.44-43.05,41.16-9.66,9.27-19.39,18.47-29.01,27.78-1.18-2.23-2.45-4.41-3.6-6.65-10.89-20.62-18.91-42.75-23.8-65.55Z"/><path class="cls-1" d="M103.95,220.19c13.2-12.76,26.41-25.53,39.59-38.31,16.31,15.74,32.59,31.52,48.89,47.26,.09,.09,.28,.26,.37,.34-14.28,17.84-30.87,33.82-49.24,47.42-4.95-3.73-9.81-7.58-14.51-11.62-12.65-10.85-24.22-22.93-34.64-35.93,3.25-2.98,6.34-6.12,9.53-9.16Z"/></g></g></g></svg>