<?xml version="1.0" encoding="utf-8"?>
<!-- Generator: Adobe Illustrator 28.3.0, SVG Export Plug-In . SVG Version: 6.00 Build 0)  -->
<svg version="1.1" id="Layer_1" xmlns="http://www.w3.org/2000/svg" xmlns:xlink="http://www.w3.org/1999/xlink" x="0px" y="0px"
	 viewBox="0 0 612 792" style="enable-background:new 0 0 612 792;" xml:space="preserve">
<style type="text/css">
	.st0{fill:#00314B;}
	.st1{fill:#FFFFFF;}
</style>
<g>
	<rect x="0.1" y="90.1" class="st0" width="611.7" height="611.7"/>
	<path class="st1" d="M122.7,368c0-4,0-6.5,0-9c0-42.3,0-84.1,0-126.4c0-4.5,1-6,6-6c118.9,0,238.4,0,357.3,0c3,0,5.5-1,5.5,4
		c0,44.8,0,89.6,0,134.4c0,0.5,0,1-0.5,2.5c-39.3-73.7-99.5-116-183.6-116C223.2,251,162.5,292.8,122.7,368z"/>
	<path class="st1" d="M306.4,404.3c-35.8,0-72.2,0-108,0c-5.5,0-6-1-4-6c16.9-47.3,61.7-79.1,112.5-79.1
		c50.3,0,95.6,31.9,112.5,79.1c2,5,1,6-4,6C379,404.3,342.8,404.3,306.4,404.3z"/>
	<path class="st1" d="M306.4,491.9c-28.9,0-57.7,0-86.6,0c-4.5,0-6-0.5-4-5.5c13.9-37.8,50.3-63.7,90.6-63.7
		c40.8,0,77.1,25.9,90.6,63.7c1.5,4.5,0.5,5.5-4,5.5C364.6,491.9,335.8,491.9,306.4,491.9z"/>
	<path class="st1" d="M306.4,566.6c-22.9,0-46.3,0-69.2,0c-4,0-5.5-0.5-4-5c10.9-29.4,39.8-50.8,70.2-50.8
		c35.3-0.5,64.2,18.4,76.1,49.8c2.5,6.5,2.5,6.5-4,6.5C352.6,566.6,329.2,566.6,306.4,566.6z"/>
</g>
</svg>
